HIERARCHY
ROOT Hips
{
  OFFSET 13.8669 100.08 148.315
  CHANNELS 6 Xposition Yposition Zposition Zrotation Xrotation Yrotation
  JOINT RightUpLeg
  {
    OFFSET -8.9458 -8.66707 0.101652
    CHANNELS 3 Zrotation Xrotation Yrotation
    JOINT RightLeg
    {
      OFFSET 0 -44.4227 1.3727
      CHANNELS 3 Zrotation Xrotation Yrotation
      JOINT RightFoot
      {
        OFFSET 0.253549 -42.0924 -1.46059
        CHANNELS 3 Zrotation Xrotation Yrotation
        JOINT RightToes
        {
          OFFSET 0.04 -4.41509 8.4991
          CHANNELS 3 Zrotation Xrotation Yrotation
          End Site
          {
            OFFSET -0.08 -0.137448 9.77979
          }
        }
      }
    }
  }
  JOINT Spine
  {
    OFFSET 0 11.8905 0
    CHANNELS 3 Zrotation Xrotation Yrotation
    JOINT Spine1
    {
      OFFSET 0 25.6574 0.127663
      CHANNELS 3 Zrotation Xrotation Yrotation
      JOINT HEad
      {
        OFFSET 0 8.73416 0.011341
        CHANNELS 3 Zrotation Xrotation Yrotation
        End Site
        {
          OFFSET -0.29 12.7742 2.51395
        }
      }
      JOINT LeftShoulder1
      {
        OFFSET 8.99 -0.362252 -0.22
        CHANNELS 3 Zrotation Xrotation Yrotation
        JOINT LeftArm
        {
          OFFSET 10.2827 -0.00338 0.322123
          CHANNELS 3 Zrotation Xrotation Yrotation
          JOINT LeftForeArm
          {
            OFFSET 32.7669 0.099144 -1.42434
            CHANNELS 3 Zrotation Xrotation Yrotation
            JOINT LeftHand
            {
              OFFSET 27.5643 0.085362 1.02216
              CHANNELS 3 Zrotation Xrotation Yrotation
              End Site
              {
                OFFSET 16.7443 -0.6 1.50291
              }
            }
          }
        }
      }
      JOINT RightShoulder
      {
        OFFSET -8.99 -0.362252 -0.22
        CHANNELS 3 Zrotation Xrotation Yrotation
        JOINT RightArm
        {
          OFFSET -10.2827 -0.00338 0.322123
          CHANNELS 3 Zrotation Xrotation Yrotation
          JOINT RightForeArm
          {
            OFFSET -32.8971 0.099144 -1.42434
            CHANNELS 3 Zrotation Xrotation Yrotation
            JOINT RightHand
            {
              OFFSET -27.4921 0.085362 1.02216
              CHANNELS 3 Zrotation Xrotation Yrotation
              End Site
              {
                OFFSET -16.6312 -0.6 1.50291
              }
            }
          }
        }
      }
    }
  }
  JOINT LeftUpLeg
  {
    OFFSET 8.9458 -8.66707 0.101652
    CHANNELS 3 Zrotation Xrotation Yrotation
    JOINT LeftLeg
    {
      OFFSET 0 -44.4227 1.3727
      CHANNELS 3 Zrotation Xrotation Yrotation
      JOINT LeftFoot
      {
        OFFSET -0.253549 -42.0924 -1.46059
        CHANNELS 3 Zrotation Xrotation Yrotation
        JOINT LeftToes
        {
          OFFSET -0.04 -4.41509 8.4991
          CHANNELS 3 Zrotation Xrotation Yrotation
          End Site
          {
            OFFSET 0.08 -0.047448 9.77979
          }
        }
      }
    }
  }
}
MOTION
Frames:	12
Frame Time:	0.0166667
18.6156 100.491 10.372 1.81034 3.41008 -179.12 11.7487 -18.9765 6.88957 -3.83267 19.4999 -9.77124 -4.89042 16.107 0.719454 13.7774 -0.611424 -6.94522 -3.68902 3.74309 1.14351 4.84534 9.4841 -0.476561 -3.44156 1.99085 4.38116 -4.96962e-017 0 -0 -92.4135 -32.1772 -12.495 -16.7506 19.6513 -47.1287 0.368473 9.90896 -0.00117926 -3.9497 0.21137 0.734117 86.017 -29.0677 -1.26425 20.7957 15.0809 16.4184 -0.369625 9.91382 0.00119886 1.97088 -0.933903 4.32173 4.44384 51.8822 -7.29537 -6.09752 15.2555 0.972113 20.1359 20.7877 -31.2325 
18.7552 100.416 8.58123 2.74608 3.59461 -178.946 12.9485 -18.3492 5.8009 -4.33184 20.8438 -8.87512 -4.88369 14.5677 0.639874 13.5223 -0.537384 -6.82732 -2.72481 3.90884 1.19897 5.64645 10.2087 -0.577687 -3.42238 1.86437 4.05985 4.96962e-017 1.59028e-015 -0 -92.4343 -31.8582 -12.2828 -16.8197 19.3574 -45.3658 0.368473 9.90896 -0.00117926 -4.36381 0.187174 0.528327 87.0352 -28.4909 0.538732 20.4409 15.3221 17.8496 -0.369625 9.91382 0.00119886 3.50523 -3.66054 6.61891 8.5355 56.3594 -12.2698 -5.82336 17.7728 1.02266 21.1518 22.2895 -32.2603 
18.8853 100.414 6.81369 3.49283 3.71669 -178.828 13.8927 -17.5738 4.75819 -4.7676 21.7886 -8.10397 -4.80853 13.0732 0.554719 12.9736 -0.415577 -6.55623 -1.88142 4.05965 1.2309 6.26533 10.7775 -0.658041 -3.32913 1.8771 3.82246 -9.93923e-017 1.59028e-015 1.98785e-016 -92.356 -31.5994 -12.0703 -17.0018 19.0774 -43.388 0.368473 9.90896 -0.00117926 -4.87936 0.172354 0.625266 88.0655 -27.8674 2.3481 20.0952 15.585 19.4394 -0.369625 9.91382 0.00119886 4.81814 -6.51587 8.57728 13.5556 60.3456 -17.4319 -4.80877 19.1603 0.92568 18.0225 21.0767 -28.4143 
19.0117 100.663 4.99861 3.65124 3.70084 -178.658 14.0042 -16.4821 4.81475 -4.53912 21.9726 -8.53469 -4.56927 12.0277 0.474344 12.7065 -0.452709 -6.37881 -1.72123 4.12101 1.26318 6.40522 11.0119 -0.684845 -3.05164 1.98495 3.60091 1.49089e-016 1.59028e-015 -1.98785e-016 -92.1291 -31.3676 -11.8795 -17.3015 18.8175 -41.1659 0.368473 9.90896 -0.00117926 -5.01594 0.173549 0.7828 88.6006 -27.021 4.2238 19.9463 15.8301 20.8327 -0.369625 9.91382 0.00119886 5.32816 -9.46611 8.92062 16.1899 63.5513 -18.0681 -3.87966 19.3749 0.762311 12.8602 19.9541 -21.5712 
19.1182 100.988 3.1886 3.52582 3.60352 -178.52 13.7298 -15.3233 5.00098 -4.19008 21.8735 -9.06097 -4.30753 11.0729 0.398863 12.5524 -0.489556 -6.26902 -1.72496 4.14714 1.25154 6.20907 11.1122 -0.673913 -2.69596 2.17062 3.46582 -0 -3.18055e-015 -0 -91.6834 -31.1571 -11.5447 -17.7155 18.5738 -38.9017 0.368473 9.90896 -0.00117926 -4.99815 0.186142 1.06892 88.9268 -26.0549 6.1933 19.8631 16.0447 22.0475 -0.369625 9.91382 0.00119886 5.33178 -12.4506 8.57087 17.0957 66.1452 -16.4841 -2.94882 18.8711 0.571511 7.83132 18.0132 -14.4692 
19.1849 101.265 1.41868 3.2806 3.44379 -178.46 13.3952 -14.3224 4.57794 -4.15171 21.8964 -8.763 -4.16486 9.93114 0.334178 12.5616 -0.395063 -6.31932 -1.51286 4.16527 1.14322 5.66996 11.2295 -0.625308 -2.32524 2.43017 3.46897 4.96962e-017 1.59028e-015 -0 -90.8616 -30.9097 -10.8651 -18.286 18.3908 -36.7872 0.368473 9.90896 -0.00117926 -4.78625 0.213015 1.46065 89.0728 -24.9496 8.36902 19.822 16.1891 22.8426 -0.369625 9.91382 0.00119886 5.10043 -15.4077 7.98826 17.2947 68.0005 -14.6195 -2.16114 18.072 0.415768 5.55314 16.3367 -11.1167 
19.2292 101.525 -0.329196 2.93412 3.25837 -178.484 12.9758 -13.3579 3.95593 -4.22292 21.9132 -8.14378 -4.05024 8.76466 0.275117 12.6494 -0.291065 -6.4211 -1.22899 4.18187 0.987497 4.94493 11.3324 -0.554411 -1.96578 2.679 3.59908 -9.93923e-017 -3.18055e-015 -7.95139e-016 -89.8893 -30.7369 -9.97479 -18.935 18.2343 -34.8219 0.368473 9.90896 -0.00117926 -4.69359 0.238275 1.98874 89.3144 -23.8899 10.5639 19.7068 16.3214 23.635 -0.369625 9.91382 0.00119886 4.57133 -18.2284 7.27885 16.7814 69.0109 -12.5964 -1.63988 17.0293 0.306057 3.96391 14.7114 -8.76445 
19.2597 101.757 -2.05423 2.52315 3.06318 -178.605 12.4786 -12.441 3.13965 -4.38863 21.9613 -7.24106 -3.88978 7.58089 0.213969 12.7093 -0.190882 -6.50527 -0.877972 4.22128 0.802371 4.12377 11.408 -0.468154 -1.65324 2.77937 3.86125 4.96962e-017 1.59028e-015 -5.96354e-016 -88.8947 -30.7209 -8.92996 -19.5864 18.0745 -33.0542 0.368473 9.90896 -0.00117926 -5.05663 0.250148 2.71475 90.082 -23.0966 12.6802 19.3258 16.4556 24.738 -0.369625 9.91382 0.00119886 3.76734 -20.81 6.70406 16.4496 69.0317 -11.9949 -1.71415 15.9268 0.299384 1.78175 13.1271 -5.55971 
19.2839 101.951 -3.77795 2.15459 2.9395 -178.849 12.0814 -11.4067 2.59342 -4.51968 21.9447 -6.53157 -3.77327 6.56703 0.16408 12.8553 -0.288767 -6.54565 -0.498158 4.25709 0.628955 3.40192 11.5521 -0.392041 -1.42033 2.88665 4.25768 1.10348e-032 3.18055e-015 -1.98785e-016 -87.9701 -30.8969 -7.74118 -20.2635 17.9412 -31.5354 0.368473 9.90896 -0.00117926 -5.76407 0.239171 3.52319 91.1158 -22.4573 14.6285 18.8438 16.6371 26.2297 -0.369625 9.91382 0.00119886 2.98374 -23.0441 6.30994 15.8979 68.1996 -11.6423 -1.88822 14.7916 0.312713 0.269287 11.1787 -3.08434 
19.3165 102.097 -5.52953 1.95945 3.02346 -179.27 11.9353 -10.001 2.92316 -4.42812 21.7118 -6.67548 -3.80506 6.08433 0.145559 13.2142 -1.01053 -6.41212 -0.126348 4.26661 0.51516 3.01951 11.9247 -0.356906 -1.30391 3.16446 4.83564 -1.73937e-016 -3.18055e-015 -0 -87.228 -31.328 -6.39812 -20.999 17.8715 -30.4024 0.368473 9.90896 -0.00117926 -6.88525 0.187788 4.32209 92.3351 -21.9316 16.2663 18.3339 16.9059 28.3945 -0.369625 9.91382 0.00119886 2.60065 -24.7153 6.294 14.8506 66.5381 -10.6794 -1.68478 13.7695 0.268081 0.676146 8.09145 -2.90781 
19.3443 102.189 -7.28515 1.91205 3.16624 -179.796 11.9739 -8.51822 3.68248 -4.27513 21.4934 -7.16174 -3.8623 5.61811 0.129783 13.6462 -1.67533 -6.34948 0.226863 4.2632 0.458676 2.93213 12.3203 -0.353691 -1.33932 3.449 5.46609 7.45443e-017 -1.59028e-015 -1.49089e-016 -86.6899 -32.0174 -4.9976 -21.6932 17.8149 -29.4449 0.368473 9.90896 -0.00117926 -8.21073 0.108908 5.10255 93.6121 -21.5461 17.6477 17.8197 17.2174 30.9397 -0.369625 9.91382 0.00119886 2.47541 -26.0406 6.50383 13.6497 64.1739 -9.61797 -1.39862 12.6871 0.21303 1.29872 5.08632 -3.14968 
19.3566 102.207 -9.01965 2.08378 3.26271 179.602 12.3099 -7.19345 4.72577 -4.16274 21.5281 -7.72183 -3.84439 4.60781 0.0873946 14.0442 -1.45875 -6.69565 0.534416 4.25391 0.49241 3.28371 12.5912 -0.396175 -1.61005 3.60845 6.04605 -3.60297e-016 1.59028e-015 4.96962e-017 -86.5121 -33.0447 -3.68403 -22.2261 17.7035 -28.4653 0.368473 9.90896 -0.00117926 -9.62088 0.00218685 5.79282 94.8342 -21.3099 18.7738 17.3521 17.5585 33.7242 -0.369625 9.91382 0.00119886 2.64415 -27.1955 6.94371 12.5517 61.2685 -8.72205 -1.20506 11.3132 0.172996 0.876863 3.42498 -2.16546 
